<?xml version="1.0" encoding="UTF-8" standalone="no"?><svg version="1.1" width="700" height="300" xmlns="http://www.w3.org/2000/svg" xmlns:xlink="http://www.w3.org/1999/xlink"><defs><linearGradient id="e3" x1="0" x2="0" y1="0" y2="100%"><stop offset="0%" stop-color="red"/><stop offset="100%" stop-color="yellow"/></linearGradient><linearGradient id="e5" x1="0" x2="0" y1="0" y2="100%"><stop offset="0%" stop-color="blue"/><stop offset="100%" stop-color="white"/></linearGradient></defs><rect width="100%" height="100%" fill="rgb(240,240,240)" stroke-width="1px" stroke="rgb(0,0,0)"/><g class="grid"><path d="M57 273h633M57 253.23h633M57 233.46h633M57 213.69h633M57 193.92h633M57 174.15h633M57 154.38h633M57 134.62h633M57 114.85h633M57 95.08h633M57 75.31h633M57 55.54h633M57 35.77h633M57 16h633M57 16v257M105.69 16v257M154.38 16v257M203.08 16v257M251.77 16v257M300.46 16v257M349.15 16v257M397.85 16v257M446.54 16v257M495.23 16v257M543.92 16v257M592.62 16v257M641.31 16v257M690 16v257" stroke="rgb(220,220,220)"/></g><rect x="110.69" width="38.69" y="119.59" height="153.41" stroke="rgb(0,0,0)" stroke-width="1px" fill="url(#e3)" id="e2"/><rect x="159.38" width="38.69" y="43.47" height="229.53" stroke="rgb(0,0,0)" stroke-width="1px" fill="url(#e5)" id="e4"/><rect x="208.08" width="38.69" y="146.99" height="126.01" stroke="rgb(0,0,0)" stroke-width="1px" fill="url(#e3)" id="e6"/><rect x="256.77" width="38.69" y="107.06" height="165.94" stroke="rgb(0,0,0)" stroke-width="1px" fill="url(#e5)" id="e7"/><rect x="305.46" width="38.69" y="42.73" height="230.27" stroke="rgb(0,0,0)" stroke-width="1px" fill="url(#e3)" id="e8"/><rect x="354.15" width="38.69" y="41.8" height="231.2" stroke="rgb(0,0,0)" stroke-width="1px" fill="url(#e5)" id="e9"/><rect x="402.85" width="38.69" y="34.5" height="238.5" stroke="rgb(0,0,0)" stroke-width="1px" fill="url(#e3)" id="ea"/><rect x="451.54" width="38.69" y="38.27" height="234.73" stroke="rgb(0,0,0)" stroke-width="1px" fill="url(#e5)" id="eb"/><rect x="500.23" width="38.69" y="18.08" height="254.92" stroke="rgb(0,0,0)" stroke-width="1px" fill="url(#e3)" id="ec"/><rect x="548.92" width="38.69" y="33" height="240" stroke="rgb(0,0,0)" stroke-width="1px" fill="url(#e5)" id="ed"/><rect x="597.62" width="38.69" y="43.95" height="229.05" stroke="rgb(0,0,0)" stroke-width="1px" fill="url(#e3)" id="ee"/><rect x="646.31" width="38.69" y="71.48" height="201.52" stroke="rgb(0,0,0)" stroke-width="1px" fill="url(#e5)" id="ef"/><path d="M57 276v-3M105.69 276v-3M154.38 276v-3M203.08 276v-3M251.77 276v-3M300.46 276v-3M349.15 276v-3M397.85 276v-3M446.54 276v-3M495.23 276v-3M543.92 276v-3M592.62 276v-3M641.31 276v-3M690 276v-3" stroke="rgb(0,0,0)" fill="none"/><path stroke="rgb(0,0,0)" d="M52 273h643" stroke-width="2px"/><g font-family="Courier New" font-size="10px" fill="rgb(0,0,0)"><text x="81.35" y="286.3" text-anchor="middle">0</text><text x="130.04" y="286.3" text-anchor="middle">1</text><text x="178.73" y="286.3" text-anchor="middle">2</text><text x="227.42" y="286.3" text-anchor="middle">3</text><text x="276.12" y="286.3" text-anchor="middle">4</text><text x="324.81" y="286.3" text-anchor="middle">5</text><text x="373.5" y="286.3" text-anchor="middle">6</text><text x="422.19" y="286.3" text-anchor="middle">7</text><text x="470.88" y="286.3" text-anchor="middle">8</text><text x="519.58" y="286.3" text-anchor="middle">9</text><text x="568.27" y="286.3" text-anchor="middle">10</text><text x="616.96" y="286.3" text-anchor="middle">11</text><text x="665.65" y="286.3" text-anchor="middle">12</text></g><path d="M54 273h3M54 253.23h3M54 233.46h3M54 213.69h3M54 193.92h3M54 174.15h3M54 154.38h3M54 134.62h3M54 114.85h3M54 95.08h3M54 75.31h3M54 55.54h3M54 35.77h3M54 16h3" stroke="rgb(0,0,0)" fill="none"/><path stroke="rgb(0,0,0)" d="M57 11v267" stroke-width="2px"/><g font-family="Courier New" font-size="10px" fill="rgb(0,0,0)"><text x="52" y="275.65" text-anchor="end">0</text><text x="52" y="255.88" text-anchor="end">20,000</text><text x="52" y="236.11" text-anchor="end">40,000</text><text x="52" y="216.34" text-anchor="end">60,000</text><text x="52" y="196.57" text-anchor="end">80,000</text><text x="52" y="176.8" text-anchor="end">100,000</text><text x="52" y="157.03" text-anchor="end">120,000</text><text x="52" y="137.27" text-anchor="end">140,000</text><text x="52" y="117.5" text-anchor="end">160,000</text><text x="52" y="97.73" text-anchor="end">180,000</text><text x="52" y="77.96" text-anchor="end">200,000</text><text x="52" y="58.19" text-anchor="end">220,000</text><text x="52" y="38.42" text-anchor="end">240,000</text><text x="52" y="18.65" text-anchor="end">260,000</text></g></svg>
